REM DIRINDEX 1\2,1\3,1\4,1\5
REM DIRNAME "folder01","folder02","folder03","folder04","folder05"
TITLE ""
FILE "1Q_t_0478-0487.mp3" MP3
  TRACK 01 AUDIO
    TITLE "3:cjc172_2363"
    INDEX 01 00:00:00
  TRACK 02 AUDIO
    TITLE "0:"
    INDEX 01 00:01:22
  TRACK 03 AUDIO
    TITLE "4:cjc172_2364"
    INDEX 01 00:01:35
  TRACK 04 AUDIO
    TITLE "0:"
    INDEX 01 00:03:60
  TRACK 05 AUDIO
    TITLE "5:cjc172_2365"
    INDEX 01 00:04:00
  TRACK 06 AUDIO
    TITLE "0:"
    INDEX 01 00:08:04
  TRACK 07 AUDIO
    TITLE "3:cjc172_2366"
    INDEX 01 00:08:57
  TRACK 08 AUDIO
    TITLE "0:"
    INDEX 01 00:09:72
  TRACK 09 AUDIO
    TITLE "4:cjc172_2367"
    INDEX 01 00:10:13
  TRACK 10 AUDIO
    TITLE "0:"
    INDEX 01 00:12:17
  TRACK 11 AUDIO
    TITLE "5:cjc172_2368"
    INDEX 01 00:12:35
  TRACK 12 AUDIO
    TITLE "0:"
    INDEX 01 00:18:02
  TRACK 13 AUDIO
    TITLE "3:cjc172_2369"
    INDEX 01 00:18:53
  TRACK 14 AUDIO
    TITLE "0:"
    INDEX 01 00:19:70
  TRACK 15 AUDIO
    TITLE "4:cjc172_2370"
    INDEX 01 00:20:11
  TRACK 16 AUDIO
    TITLE "0:"
    INDEX 01 00:21:44
  TRACK 17 AUDIO
    TITLE "5:cjc172_2371"
    INDEX 01 00:21:58
  TRACK 18 AUDIO
    TITLE "0:"
    INDEX 01 00:26:66
  TRACK 19 AUDIO
    TITLE "3:cjc172_2372"
    INDEX 01 00:27:44
  TRACK 20 AUDIO
    TITLE "0:"
    INDEX 01 00:28:52
  TRACK 21 AUDIO
    TITLE "4:cjc172_2373"
    INDEX 01 00:28:67
  TRACK 22 AUDIO
    TITLE "0:"
    INDEX 01 00:31:23
  TRACK 23 AUDIO
    TITLE "5:cjc172_2374"
    INDEX 01 00:31:36
  TRACK 24 AUDIO
    TITLE "0:"
    INDEX 01 00:37:62
  TRACK 25 AUDIO
    TITLE "3:cjc172_2375"
    INDEX 01 00:38:42
  TRACK 26 AUDIO
    TITLE "0:"
    INDEX 01 00:39:46
  TRACK 27 AUDIO
    TITLE "4:cjc172_2376"
    INDEX 01 00:39:63
  TRACK 28 AUDIO
    TITLE "0:"
    INDEX 01 00:42:05
  TRACK 29 AUDIO
    TITLE "5:cjc172_2377"
    INDEX 01 00:42:19
  TRACK 30 AUDIO
    TITLE "0:"
    INDEX 01 00:49:24
  TRACK 31 AUDIO
    TITLE "3:cjc172_2378"
    INDEX 01 00:50:02
  TRACK 32 AUDIO
    TITLE "0:"
    INDEX 01 00:51:04
  TRACK 33 AUDIO
    TITLE "4:cjc172_2379"
    INDEX 01 00:51:19
  TRACK 34 AUDIO
    TITLE "0:"
    INDEX 01 00:53:40
  TRACK 35 AUDIO
    TITLE "5:cjc172_2380"
    INDEX 01 00:53:54
  TRACK 36 AUDIO
    TITLE "0:"
    INDEX 01 01:00:40
  TRACK 37 AUDIO
    TITLE "3:cjc172_2381"
    INDEX 01 01:01:18
  TRACK 38 AUDIO
    TITLE "0:"
    INDEX 01 01:02:39
  TRACK 39 AUDIO
    TITLE "4:cjc172_2382"
    INDEX 01 01:02:54
  TRACK 40 AUDIO
    TITLE "0:"
    INDEX 01 01:04:67
  TRACK 41 AUDIO
    TITLE "5:cjc172_2383"
    INDEX 01 01:05:08
  TRACK 42 AUDIO
    TITLE "0:"
    INDEX 01 01:11:59
  TRACK 43 AUDIO
    TITLE "3:cjc172_2384"
    INDEX 01 01:12:37
  TRACK 44 AUDIO
    TITLE "0:"
    INDEX 01 01:13:52
  TRACK 45 AUDIO
    TITLE "4:cjc172_2385"
    INDEX 01 01:13:72
  TRACK 46 AUDIO
    TITLE "0:"
    INDEX 01 01:17:66
  TRACK 47 AUDIO
    TITLE "5:cjc172_2386"
    INDEX 01 01:18:06
  TRACK 48 AUDIO
    TITLE "0:"
    INDEX 01 01:23:25
  TRACK 49 AUDIO
    TITLE "3:cjc172_2387"
    INDEX 01 01:24:01
  TRACK 50 AUDIO
    TITLE "0:"
    INDEX 01 01:25:34
  TRACK 51 AUDIO
    TITLE "4:cjc172_2388"
    INDEX 01 01:25:50
  TRACK 52 AUDIO
    TITLE "0:"
    INDEX 01 01:29:34
  TRACK 53 AUDIO
    TITLE "5:cjc172_2389"
    INDEX 01 01:29:49
  TRACK 54 AUDIO
    TITLE "0:"
    INDEX 01 01:35:62
  TRACK 55 AUDIO
    TITLE "3:cjc172_2390"
    INDEX 01 01:36:40
  TRACK 56 AUDIO
    TITLE "0:"
    INDEX 01 01:37:67
  TRACK 57 AUDIO
    TITLE "4:cjc172_2391"
    INDEX 01 01:38:07
  TRACK 58 AUDIO
    TITLE "0:"
    INDEX 01 01:41:45
  TRACK 59 AUDIO
    TITLE "5:cjc172_2392"
    INDEX 01 01:41:58
  TRACK 60 AUDIO
    TITLE "0:"
    INDEX 01 01:48:17
